<svg width="150" height="101" viewBox="0 0 150 101" fill="none" xmlns="http://www.w3.org/2000/svg">
<path d="M149.376 48.086L113.776 0.738024C113.632 0.526569 113.442 0.3503 113.221 0.222348C113 0.0943964 112.752 0.0180595 112.497 -0.000976562C112.241 0.0148141 111.992 0.0897796 111.771 0.218017C111.549 0.346254 111.359 0.524261 111.218 0.738024L106.912 6.47702C106.526 7.02409 106.319 7.67711 106.319 8.34652C106.319 9.01593 106.526 9.66895 106.912 10.216L136.801 50L106.907 89.786C106.521 90.3331 106.314 90.9861 106.314 91.6555C106.314 92.3249 106.521 92.978 106.907 93.525L111.213 99.264C111.354 99.4778 111.544 99.6558 111.766 99.784C111.987 99.9123 112.236 99.9872 112.492 100.003C112.749 99.9909 112.999 99.9174 113.221 99.7889C113.444 99.6603 113.632 99.4803 113.771 99.264L149.407 51.87C149.801 51.327 150.009 50.671 150 50C149.984 49.3147 149.767 48.6491 149.376 48.086Z" fill="#030F1A"/>
<path d="M13.2 50L43.093 10.217C43.4788 9.66993 43.6859 9.01691 43.6859 8.3475C43.6859 7.67809 43.4788 7.02507 43.093 6.478L38.787 0.739C38.6431 0.527546 38.4534 0.351278 38.2319 0.223326C38.0105 0.0953739 37.763 0.019036 37.508 0C37.2521 0.0157907 37.0035 0.0907561 36.7815 0.218993C36.5596 0.34723 36.3704 0.525238 36.229 0.739L0.592989 48.13C0.207211 48.6771 0.00012207 49.3301 0.00012207 49.9995C0.00012207 50.6689 0.207211 51.3219 0.592989 51.869L36.228 99.26C36.3719 99.4715 36.5616 99.6477 36.783 99.7757C37.0045 99.9036 37.2519 99.98 37.507 99.999C37.7637 99.9868 38.0137 99.9134 38.2362 99.7848C38.4587 99.6563 38.6473 99.4763 38.786 99.26L43.092 93.521C43.4778 92.9739 43.6849 92.3209 43.6849 91.6515C43.6849 90.9821 43.4778 90.3291 43.092 89.782L13.2 50Z" fill="#030F1A"/>
<path d="M81.845 50C81.845 51.3578 81.4424 52.6851 80.688 53.814C79.9337 54.9429 78.8615 55.8228 77.6071 56.3424C76.3527 56.862 74.9724 56.998 73.6407 56.7331C72.309 56.4682 71.0858 55.8144 70.1257 54.8543C69.1656 53.8942 68.5118 52.671 68.2469 51.3393C67.982 50.0076 68.118 48.6273 68.6376 47.3729C69.1572 46.1185 70.0371 45.0463 71.166 44.292C72.2949 43.5376 73.6222 43.135 74.98 43.135C76.8007 43.135 78.5468 43.8583 79.8343 45.1457C81.1217 46.4332 81.845 48.1793 81.845 50Z" fill="#030F1A"/>
<path d="M56.202 50C56.202 51.3578 55.7994 52.6851 55.045 53.814C54.2907 54.9429 53.2185 55.8228 51.9641 56.3424C50.7097 56.862 49.3294 56.998 47.9977 56.7331C46.666 56.4682 45.4428 55.8144 44.4827 54.8543C43.5226 53.8942 42.8688 52.671 42.6039 51.3393C42.339 50.0076 42.475 48.6273 42.9946 47.3729C43.5142 46.1185 44.3941 45.0463 45.523 44.292C46.6519 43.5376 47.9792 43.135 49.337 43.135C51.1577 43.135 52.9038 43.8583 54.1913 45.1457C55.4787 46.4332 56.202 48.1793 56.202 50Z" fill="#030F1A"/>
<path d="M107.488 50.985C107.488 52.3428 107.085 53.67 106.331 54.799C105.577 55.9279 104.505 56.8078 103.25 57.3274C101.996 57.847 100.615 57.983 99.2837 57.7181C97.952 57.4532 96.7288 56.7994 95.7687 55.8393C94.8086 54.8792 94.1548 53.656 93.8899 52.3243C93.625 50.9926 93.761 49.6123 94.2806 48.3579C94.8002 47.1035 95.6801 46.0313 96.809 45.277C97.938 44.5226 99.2652 44.12 100.623 44.12C102.444 44.12 104.19 44.8433 105.477 46.1307C106.765 47.4181 107.488 49.1643 107.488 50.985Z" fill="#030F1A"/>
</svg>
