<svg width="143" height="141" viewBox="0 0 143 141" fill="none" xmlns="http://www.w3.org/2000/svg">
<g style="mix-blend-mode:hard-light">
<path d="M141.886 65.615C141.661 70.9215 140.788 76.1805 139.286 81.275C137.857 86.2295 135.551 90.8874 132.476 95.027C129.395 99.0964 125.452 102.434 120.93 104.8C115.7 107.401 109.911 108.678 104.072 108.518C99.8549 108.601 95.6778 107.687 91.881 105.85C88.4684 104.175 85.6089 101.554 83.643 98.3C78.1637 104.914 70.7996 108.221 61.551 108.221C57.7417 108.271 53.9716 107.447 50.53 105.814C47.2525 104.238 44.4133 101.88 42.263 98.947C39.938 95.7355 38.3061 92.0757 37.471 88.2C36.4687 83.5976 36.257 78.8583 36.845 74.185C37.5675 68.2576 39.1772 62.4726 41.62 57.024C43.7794 52.1638 46.7653 47.7149 50.445 43.875C53.916 40.2532 58.0923 37.3809 62.7162 35.4356C67.3402 33.4902 72.3137 32.5129 77.33 32.564C80.2856 32.5333 83.2383 32.7588 86.155 33.238C88.4886 33.6431 90.7809 34.2579 93.004 35.075C94.965 35.8123 96.8628 36.7076 98.679 37.752C100.411 38.752 102.152 39.782 103.884 40.831L99.6 84.923C99.3003 86.6351 99.3435 88.3897 99.727 90.085C100.021 91.2836 100.629 92.3825 101.488 93.269C102.28 94.0615 103.265 94.6343 104.345 94.931C106.042 95.4208 107.829 95.5163 109.569 95.21C111.308 94.9038 112.955 94.2039 114.383 93.164C116.585 91.5213 118.418 89.435 119.764 87.04C121.379 84.1502 122.597 81.0556 123.384 77.84C124.301 74.0838 124.832 70.2439 124.969 66.38C125.477 59.179 124.796 51.9436 122.953 44.964C121.326 38.8272 118.291 33.1541 114.089 28.395C109.708 23.6346 104.264 19.9763 98.201 17.718C91.7436 15.1986 84.0273 13.936 75.052 13.93C67.1923 13.8006 59.3928 15.3206 52.157 18.392C45.5639 21.2675 39.639 25.4796 34.757 30.762C29.8156 36.1859 25.9522 42.501 23.373 49.37C20.574 56.7998 18.9564 64.6224 18.579 72.553C18.139 81.5636 18.9543 89.449 21.025 96.209C22.8466 102.551 26.1615 108.365 30.692 113.163C35.2568 117.82 40.8738 121.313 47.07 123.346C54.3656 125.71 62.002 126.851 69.67 126.723C74.6461 126.677 79.609 126.201 84.503 125.3C86.949 124.863 89.268 124.338 91.479 123.76C93.5155 123.23 95.5209 122.588 97.486 121.835L100.586 134.31C98.452 135.527 96.1997 136.523 93.864 137.284C91.2577 138.123 88.6049 138.809 85.919 139.34C80.4558 140.427 74.9003 140.983 69.33 141C57.9606 141 47.8766 139.548 39.078 136.643C30.8339 134.061 23.2902 129.626 17.025 123.678C10.9613 117.705 6.42067 110.364 3.78498 102.271C0.881644 93.7323 -0.351022 83.8263 0.0869776 72.553C0.489728 62.7432 2.64364 53.0844 6.44698 44.033C10.0063 35.542 15.2137 27.8408 21.768 21.375C28.487 14.8858 36.4335 9.8029 45.142 6.42397C54.7917 2.69218 65.0689 0.850746 75.414 0.999972C86.5093 0.999972 96.287 2.56664 104.747 5.69997C112.686 8.50105 119.914 13.0105 125.92 18.91C131.615 24.6618 135.913 31.6446 138.483 39.32C141.276 47.7896 142.431 56.7134 141.886 65.615ZM57.861 74.189C57.2443 80.689 57.8183 85.6083 59.583 88.947C60.356 90.5216 61.5753 91.8341 63.0888 92.7209C64.6024 93.6076 66.3434 94.0295 68.095 93.934C69.0849 93.9133 70.0668 93.7513 71.011 93.453C72.2281 93.0581 73.3647 92.4485 74.367 91.653C75.6796 90.6073 76.826 89.3686 77.767 87.979C79.0753 86.053 80.1278 83.9652 80.898 81.768L84.244 47.509C82.5392 47.1004 80.792 46.895 79.039 46.897C76.0556 46.8274 73.0951 47.4346 70.38 48.673C67.9356 49.8774 65.8278 51.6688 64.245 53.887C62.4266 56.5017 61.0515 59.3981 60.175 62.46C59.0533 66.2887 58.2821 70.2115 57.871 74.18L57.861 74.189Z" fill="#030F1A"/>
</g>
</svg>
