<svg width="150" height="149" viewBox="0 0 150 149" fill="none" xmlns="http://www.w3.org/2000/svg">
<g style="mix-blend-mode:hard-light">
<path d="M0 93.069C2.4217 92.9913 4.80403 92.4348 7.00953 91.4316C9.21504 90.4284 11.2 88.9983 12.85 87.224C14.5557 85.5027 15.9026 83.4597 16.8124 81.2136C17.7222 78.9676 18.1769 76.5632 18.15 74.14C18.1378 79.0162 20.0106 83.7085 23.3772 87.2361C26.7438 90.7637 31.3435 92.8536 36.215 93.069C31.3435 93.2834 26.7434 95.3723 23.3761 98.8991C20.0087 102.426 18.1348 107.118 18.146 111.994C18.1906 109.568 17.7441 107.159 16.8333 104.91C15.9225 102.662 14.5662 100.621 12.846 98.91C11.1962 97.1368 9.2117 95.7078 7.00693 94.7053C4.80216 93.7028 2.42074 93.1467 0 93.069ZM18.146 36.994C22.8621 36.8279 27.4988 35.7308 31.7893 33.7659C36.0798 31.8011 39.9394 29.0072 43.146 25.545C46.4678 22.1814 49.0874 18.1907 50.8524 13.8052C52.6175 9.41968 53.4926 4.72692 53.427 0C53.3612 4.72685 54.2363 9.41957 56.0011 13.8051C57.766 18.1906 60.3854 22.1813 63.707 25.545C70.2256 32.5244 79.2414 36.6404 88.785 36.994C82.4579 37.2413 76.3071 39.1484 70.95 42.524C65.6 45.8611 61.1799 50.4959 58.1 55.998C54.9951 61.5391 53.3847 67.7924 53.427 74.144C53.4926 69.4059 52.6177 64.7018 50.853 60.3041C49.0882 55.9064 46.4687 51.9024 43.146 48.524C39.9545 45.0369 36.0997 42.2211 31.8071 40.2414C27.5145 38.2617 22.8703 37.1577 18.146 36.994ZM44.003 120.873C47.5555 120.765 51.0511 119.953 54.2866 118.482C57.5222 117.011 60.433 114.912 62.85 112.306C65.3461 109.771 67.313 106.764 68.6359 103.462C69.9589 100.159 70.6116 96.6263 70.556 93.069C70.5541 100.217 73.3031 107.092 78.2332 112.268C83.1633 117.443 89.8963 120.523 97.036 120.869C89.895 121.215 83.1611 124.296 78.2308 129.473C73.3005 134.65 70.5523 141.527 70.556 148.676C70.6111 145.118 69.9578 141.585 68.6341 138.283C67.3104 134.98 65.3429 131.974 62.846 129.439C57.9342 124.219 51.1655 121.142 44.003 120.872V120.873ZM97.04 83.957C100.581 83.8488 104.065 83.0354 107.288 81.5644C110.51 80.0934 113.407 77.9943 115.809 75.39C118.302 72.8402 120.262 69.8185 121.572 66.5018C122.883 63.1852 123.518 59.6403 123.441 56.075C123.439 63.2364 126.198 70.1229 131.145 75.3011C136.092 80.4794 142.845 83.5504 149.999 83.875C142.845 84.1996 136.092 87.2706 131.145 92.4489C126.198 97.6271 123.439 104.514 123.441 111.675C123.494 104.533 120.77 97.6489 115.845 92.4761C110.92 87.3033 104.177 84.246 97.041 83.949L97.04 83.957Z" fill="#030F1A"/>
</g>
</svg>
