<svg width="149" height="144" viewBox="0 0 149 144" fill="none" xmlns="http://www.w3.org/2000/svg">
<g style="mix-blend-mode:hard-light">
<path d="M74.572 0.251073C57.1024 0.251448 40.2029 6.46791 26.8972 17.7882C13.5916 29.1084 4.74811 44.7938 1.94909 62.0377C-0.849929 79.2817 2.57817 96.959 11.62 111.907C20.6618 126.854 34.7274 138.097 51.3 143.623C54.979 144.316 56.327 142.041 56.327 140.085C56.327 138.338 56.266 133.709 56.235 127.578C35.77 132.017 31.454 117.707 31.454 117.707C28.106 109.216 23.269 106.947 23.269 106.947C16.605 102.386 23.784 102.478 23.784 102.478C31.172 102.993 35.053 110.056 35.053 110.056C41.613 121.306 52.275 118.056 56.481 116.175C57.143 111.417 59.038 108.175 61.141 106.335C44.802 104.496 27.629 98.1691 27.629 69.9781C27.5159 62.6679 30.2279 55.5961 35.2 50.2361C34.372 48.3781 31.889 40.8991 35.844 30.7641C35.844 30.7641 42.006 28.7901 56.076 38.3051C68.1145 34.9943 80.8235 34.9943 92.862 38.3051C106.841 28.7901 113.002 30.7641 113.002 30.7641C116.956 40.8991 114.473 48.3781 113.738 50.2361C118.689 55.6072 121.388 62.6742 121.279 69.9781C121.279 98.2421 104.079 104.465 87.712 106.278C90.287 108.485 92.678 112.998 92.678 119.889C92.678 129.735 92.586 137.644 92.586 140.035C92.586 141.966 93.873 144.265 97.644 143.53C114.249 138.066 128.363 126.861 137.45 111.926C146.536 96.9924 150.001 79.308 147.222 62.049C144.443 44.7901 135.602 29.0873 122.286 17.7606C108.971 6.4339 92.0533 0.225423 74.572 0.250073" fill="#030F1A"/>
</g>
</svg>
